<?xml version="1.0" encoding="UTF-8"?>
<svg xmlns="http://www.w3.org/2000/svg" width="1200" height="320" viewBox="0 0 1200 320" role="img" aria-label="Sockets (TCP Unicast via WebSocket)">
  <defs>
    <linearGradient id="bg" x1="0" y1="0" x2="1" y2="1">
      <stop offset="0" stop-color="#0b1220"/>
      <stop offset="1" stop-color="#111827"/>
    </linearGradient>
    <linearGradient id="line" x1="0" y1="0" x2="1" y2="0">
      <stop offset="0" stop-color="#22d3ee"/>
      <stop offset="0.5" stop-color="#60a5fa"/>
      <stop offset="1" stop-color="#34d399"/>
    </linearGradient>
    <filter id="shadow" x="-20%" y="-20%" width="140%" height="140%">
      <feGaussianBlur in="SourceAlpha" stdDeviation="8" result="b"/>
      <feOffset in="b" dx="0" dy="6" result="o"/>
      <feColorMatrix in="o" type="matrix" values="0 0 0 0 0  0 0 0 0 0  0 0 0 0 0  0 0 0 0.28 0" result="s"/>
      <feMerge>
        <feMergeNode in="s"/>
        <feMergeNode in="SourceGraphic"/>
      </feMerge>
    </filter>
    <style>
      .title{font: 800 46px ui-sans-serif,system-ui,-apple-system,"Segoe UI",Roboto,Helvetica,Arial; fill:#f9fafb}
      .sub{font: 500 20px ui-sans-serif,system-ui,-apple-system,"Segoe UI",Roboto,Helvetica,Arial; fill:#d1d5db}
      .mono{font: 700 16px ui-monospace,SFMono-Regular,Menlo,Monaco,Consolas,"Liberation Mono",monospace; fill:#e5e7eb}
      .muted{fill:#9ca3af}
    </style>
  </defs>

  <!-- Card -->
  <rect x="20" y="20" width="1160" height="280" rx="26" fill="url(#bg)" filter="url(#shadow)"/>
  <rect x="20" y="20" width="1160" height="280" rx="26" fill="none" stroke="#223047" stroke-width="2"/>

  <!-- Network glyph (left) -->
  <g transform="translate(70,62)">
    <!-- nodes -->
    <circle cx="44" cy="98" r="18" fill="#0f172a" stroke="#2b3a55" stroke-width="2"/>
    <circle cx="44" cy="98" r="7" fill="#22d3ee"/>

    <circle cx="148" cy="58" r="16" fill="#0f172a" stroke="#2b3a55" stroke-width="2"/>
    <circle cx="148" cy="58" r="6" fill="#60a5fa"/>

    <circle cx="148" cy="138" r="16" fill="#0f172a" stroke="#2b3a55" stroke-width="2"/>
    <circle cx="148" cy="138" r="6" fill="#34d399"/>

    <circle cx="260" cy="98" r="18" fill="#0f172a" stroke="#2b3a55" stroke-width="2"/>
    <circle cx="260" cy="98" r="7" fill="#a78bfa"/>

    <!-- links -->
    <path d="M62 92 C 92 76, 112 66, 132 60" fill="none" stroke="url(#line)" stroke-width="4" stroke-linecap="round"/>
    <path d="M62 104 C 92 120, 112 130, 132 136" fill="none" stroke="url(#line)" stroke-width="4" stroke-linecap="round"/>
    <path d="M164 58 C 196 58, 218 74, 244 92" fill="none" stroke="url(#line)" stroke-width="4" stroke-linecap="round"/>
    <path d="M164 138 C 196 138, 218 122, 244 104" fill="none" stroke="url(#line)" stroke-width="4" stroke-linecap="round"/>

    <!-- unicast arrow (one direction emphasis) -->
    <path d="M286 98 C 340 98, 382 98, 430 98" fill="none" stroke="url(#line)" stroke-width="7" stroke-linecap="round"/>
    <path d="M430 98 l-18 -12 v24 z" fill="#34d399"/>

    <!-- badges -->
    <g transform="translate(0,182)">
      <rect x="0" y="0" width="78" height="30" rx="15" fill="#0f172a" stroke="#2b3a55"/>
      <text x="39" y="20" text-anchor="middle" class="mono">TCP</text>
    </g>
    <g transform="translate(92,182)">
      <rect x="0" y="0" width="92" height="30" rx="15" fill="#0f172a" stroke="#2b3a55"/>
      <text x="46" y="20" text-anchor="middle" class="mono">UNICAST</text>
    </g>
    <g transform="translate(198,182)">
      <rect x="0" y="0" width="66" height="30" rx="15" fill="#0f172a" stroke="#2b3a55"/>
      <text x="33" y="20" text-anchor="middle" class="mono">WS</text>
    </g>

    <!-- handshake hint -->
    <text x="214" y="246" text-anchor="middle" class="mono">
      <tspan class="muted">SYN</tspan>
      <tspan class="muted"> · </tspan>
      <tspan class="muted">SYN-ACK</tspan>
      <tspan class="muted"> · </tspan>
      <tspan class="muted">ACK</tspan>
      <tspan class="muted"> · </tspan>
      <tspan class="muted">FIN</tspan>
    </text>
  </g>

  <!-- Text block (right) -->
  <text x="560" y="124" class="title">Sockets</text>
  <text x="560" y="162" class="sub">Servidor e clientes com mensagens unicast</text>
  <text x="560" y="190" class="sub">Simulação didática de estados TCP via WebSocket</text>

  <text x="560" y="236" class="mono">/server · /client · ws://&lt;host&gt;:3000/ws</text>
</svg>
