<?xml version="1.0" encoding="UTF-8"?>
<svg xmlns="http://www.w3.org/2000/svg" width="1200" height="320" viewBox="0 0 1200 320" role="img" aria-label="Sockets (TCP Unicast via WebSocket) — hosts se comunicando">
  <defs>
    <linearGradient id="bg" x1="0" y1="0" x2="1" y2="1">
      <stop offset="0" stop-color="#0b1220"/>
      <stop offset="1" stop-color="#111827"/>
    </linearGradient>
    <linearGradient id="accent" x1="0" y1="0" x2="1" y2="0">
      <stop offset="0" stop-color="#60a5fa"/>
      <stop offset="1" stop-color="#34d399"/>
    </linearGradient>
    <filter id="shadow" x="-20%" y="-20%" width="140%" height="140%">
      <feGaussianBlur in="SourceAlpha" stdDeviation="8" result="b"/>
      <feOffset in="b" dx="0" dy="6" result="o"/>
      <feColorMatrix in="o" type="matrix" values="0 0 0 0 0  0 0 0 0 0  0 0 0 0 0  0 0 0 0.28 0" result="s"/>
      <feMerge>
        <feMergeNode in="s"/>
        <feMergeNode in="SourceGraphic"/>
      </feMerge>
    </filter>
    <style>
      .title{font: 800 46px ui-sans-serif,system-ui,-apple-system,"Segoe UI",Roboto,Helvetica,Arial; fill:#f9fafb}
      .sub{font: 500 20px ui-sans-serif,system-ui,-apple-system,"Segoe UI",Roboto,Helvetica,Arial; fill:#d1d5db}
      .mono{font: 700 16px ui-monospace,SFMono-Regular,Menlo,Monaco,Consolas,"Liberation Mono",monospace; fill:#e5e7eb}
      .muted{fill:#9ca3af}
    </style>
  </defs>

  <!-- Card -->
  <rect x="20" y="20" width="1160" height="280" rx="26" fill="url(#bg)" filter="url(#shadow)"/>
  <rect x="20" y="20" width="1160" height="280" rx="26" fill="none" stroke="#223047" stroke-width="2"/>

  <!-- Left illustration: two hosts + packets (no connecting lines) -->
  <g transform="translate(70,62)">
    <!-- Host A (server) -->
    <rect x="0" y="32" width="190" height="140" rx="18" fill="#0f172a" stroke="#2b3a55" stroke-width="2"/>
    <rect x="18" y="52" width="154" height="88" rx="12" fill="#0b1220" stroke="#223047"/>
    <rect x="72" y="148" width="46" height="10" rx="5" fill="#223047"/>
    <circle cx="95" cy="170" r="4" fill="#34d399"/>
    <text x="95" y="206" text-anchor="middle" class="mono">HOST A</text>

    <!-- Host B (client) -->
    <rect x="320" y="48" width="190" height="124" rx="18" fill="#0f172a" stroke="#2b3a55" stroke-width="2"/>
    <rect x="338" y="66" width="154" height="76" rx="12" fill="#0b1220" stroke="#223047"/>
    <rect x="392" y="148" width="46" height="10" rx="5" fill="#223047"/>
    <circle cx="415" cy="168" r="4" fill="#60a5fa"/>
    <text x="415" y="206" text-anchor="middle" class="mono">HOST B</text>

    <!-- Floating packets (unicast feel) -->
    <g>
      <rect x="216" y="70" width="64" height="36" rx="10" fill="#0b1220" stroke="#2b3a55"/>
      <text x="248" y="94" text-anchor="middle" class="mono">SYN</text>

      <rect x="214" y="116" width="88" height="36" rx="10" fill="#0b1220" stroke="#2b3a55"/>
      <text x="258" y="140" text-anchor="middle" class="mono">SYN-ACK</text>

      <rect x="234" y="162" width="64" height="36" rx="10" fill="#0b1220" stroke="#2b3a55"/>
      <text x="266" y="186" text-anchor="middle" class="mono">ACK</text>
    </g>

    <!-- Direction cue without lines: small arrowheads + glow dots -->
    <g opacity="0.95">
      <path d="M206 88 l14 -10 v20 z" fill="#60a5fa"/>
      <path d="M308 134 l-14 -10 v20 z" fill="#34d399"/>
      <path d="M208 180 l14 -10 v20 z" fill="#a78bfa"/>
    </g>

    <!-- Badges -->
    <g transform="translate(0,224)">
      <rect x="0" y="0" width="78" height="30" rx="15" fill="#0b1220" stroke="#2b3a55"/>
      <text x="39" y="20" text-anchor="middle" class="mono">TCP</text>
    </g>
    <g transform="translate(92,224)">
      <rect x="0" y="0" width="92" height="30" rx="15" fill="#0b1220" stroke="#2b3a55"/>
      <text x="46" y="20" text-anchor="middle" class="mono">UNICAST</text>
    </g>
    <g transform="translate(198,224)">
      <rect x="0" y="0" width="66" height="30" rx="15" fill="#0b1220" stroke="#2b3a55"/>
      <text x="33" y="20" text-anchor="middle" class="mono">WS</text>
    </g>

    <text x="255" y="266" text-anchor="middle" class="mono">
      <tspan class="muted">handshake TCP</tspan>
      <tspan class="muted"> · </tspan>
      <tspan class="muted">mensagens unicast</tspan>
    </text>
  </g>

  <!-- Text block (right) -->
  <text x="620" y="124" class="title">Sockets</text>
  <text x="620" y="162" class="sub">Hosts se comunicando em modo unicast</text>
  <text x="620" y="190" class="sub">Simulação didática de estados TCP via WebSocket</text>

  <text x="620" y="236" class="mono">/server · /client · ws://&lt;host&gt;:3000/ws</text>
</svg>
